<?xml version="1.0" encoding="utf-8"?>
<!-- Generator: Adobe Illustrator 21.0.0, SVG Export Plug-In . SVG Version: 6.00 Build 0)  -->
<svg version="1.1" id="Warstwa_1" xmlns="http://www.w3.org/2000/svg" xmlns:xlink="http://www.w3.org/1999/xlink" x="0px" y="0px"
	 viewBox="0 0 24 24" style="enable-background:new 0 0 24 24;" xml:space="preserve">
<style type="text/css">
	.st0{fill:none;}
	.st1{font-family:'Impact';}
	.st2{font-size:12px;}
</style>
<path class="st0" d="M0,0h24v24H0V0z"/>
<path d="M3,5H1v16c0,1.1,0.9,2,2,2h16v-2H3V5z M21,1H7C5.9,1,5,1.9,5,3v14c0,1.1,0.9,2,2,2h14c1.1,0,2-0.9,2-2V3C23,1.9,22.1,1,21,1
	z M21,17H7V3h14V17z"/>
<text transform="matrix(1 0 0 1 11.25 14.5)" class="st1 st2">7</text>
</svg>
